<?xml version="1.0" encoding="UTF-8"?>
<svg xmlns="http://www.w3.org/2000/svg" xmlns:xlink="http://www.w3.org/1999/xlink" width="256px" height="256px" viewBox="0 0 256 256" version="1.1">
<g id="surface1">
<path style=" stroke:none;fill-rule:nonzero;fill:rgb(70.980392%,0.392157%,5.882353%);fill-opacity:1;" d="M 252.722656 5.191406 C 266.230469 18.90625 228.785156 79.195312 222.453125 85.628906 C 216.125 92.050781 200.042969 86.144531 186.542969 72.425781 C 173.035156 58.707031 167.214844 42.371094 173.546875 35.941406 C 179.875 29.503906 239.21875 -8.53125 252.722656 5.191406 "/>
<path style=" stroke:none;fill-rule:nonzero;fill:rgb(70.980392%,0.392157%,5.882353%);fill-opacity:1;" d="M 63.304688 19.703125 C 42.683594 7.816406 13.339844 -5.40625 4.003906 4.078125 C -5.453125 13.683594 8.039062 44.160156 19.863281 65.148438 C 30.386719 46.566406 45.351562 30.921875 63.304688 19.703125 "/>
<path style=" stroke:none;fill-rule:nonzero;fill:rgb(70.980392%,0.392157%,5.882353%);fill-opacity:1;" d="M 232.125 80.898438 C 234.023438 87.441406 233.679688 92.847656 230.601562 95.96875 C 223.40625 103.28125 203.976562 95.496094 186.460938 78.5625 C 185.238281 77.449219 184.023438 76.292969 182.832031 75.082031 C 176.5 68.644531 171.570312 61.792969 168.417969 55.484375 C 162.285156 44.304688 160.75 34.429688 165.386719 29.71875 C 167.914062 27.152344 171.957031 26.453125 176.890625 27.355469 C 180.105469 25.289062 183.902344 22.988281 188.066406 20.628906 C 171.136719 11.660156 151.886719 6.59375 131.472656 6.59375 C 63.753906 6.59375 8.855469 62.355469 8.855469 131.15625 C 8.855469 199.941406 63.753906 255.710938 131.472656 255.710938 C 199.191406 255.710938 254.085938 199.941406 254.085938 131.15625 C 254.085938 108.9375 248.347656 88.105469 238.320312 70.042969 C 236.152344 74.0625 234.046875 77.742188 232.125 80.898438 "/>
</g>
</svg>
