<?xml version="1.0" encoding="UTF-8"?>
<svg xmlns="http://www.w3.org/2000/svg" xmlns:xlink="http://www.w3.org/1999/xlink" width="256px" height="256px" viewBox="0 0 256 256" version="1.1">
<g id="surface1">
<path style=" stroke:none;fill-rule:nonzero;fill:rgb(19.607843%,42.745098%,90.196078%);fill-opacity:1;" d="M 82.085938 251.820312 C 76.140625 251.820312 70.523438 249.101562 66.726562 244.179688 L 8.917969 170.3125 C 5.121094 165.390625 3.632812 159.105469 5.121094 152.992188 L 25.765625 60.789062 C 27.085938 54.675781 31.050781 49.753906 36.5 47.035156 L 120.070312 5.941406 C 122.714844 4.585938 125.6875 3.90625 128.660156 3.90625 C 131.632812 3.90625 134.605469 4.585938 137.25 5.941406 L 220.820312 46.867188 C 226.269531 49.582031 230.234375 54.507812 231.554688 60.621094 L 252.203125 152.824219 C 253.523438 158.9375 252.203125 165.21875 248.402344 170.144531 L 190.597656 244.007812 C 186.796875 248.761719 181.183594 251.648438 175.234375 251.648438 Z M 82.085938 251.820312 "/>
<path style=" stroke:none;fill-rule:nonzero;fill:rgb(100%,100%,100%);fill-opacity:1;" d="M 128.496094 8.152344 C 130.808594 8.152344 133.121094 8.660156 135.265625 9.679688 L 218.839844 50.601562 C 223.132812 52.808594 226.4375 56.882812 227.425781 61.640625 L 248.070312 153.84375 C 249.226562 158.765625 248.070312 163.859375 244.933594 167.765625 L 187.128906 241.632812 C 184.15625 245.539062 179.53125 247.746094 174.742188 247.746094 L 82.085938 247.746094 C 77.296875 247.746094 72.671875 245.539062 69.699219 241.632812 L 11.890625 167.765625 C 8.917969 163.859375 7.761719 158.765625 8.753906 153.84375 L 29.398438 61.640625 C 30.554688 56.714844 33.691406 52.640625 37.988281 50.601562 L 121.558594 9.507812 C 123.707031 8.660156 126.183594 8.152344 128.496094 8.152344 Z M 128.496094 0.167969 C 125.027344 0.167969 121.558594 1.019531 118.253906 2.546875 L 34.683594 43.640625 C 28.078125 46.867188 23.453125 52.808594 21.800781 60.109375 L 1.15625 152.316406 C -0.496094 159.617188 1.15625 167.085938 5.78125 173.03125 L 63.585938 246.894531 C 68.046875 252.667969 74.816406 255.894531 81.921875 255.894531 L 174.574219 255.894531 C 181.675781 255.894531 188.449219 252.667969 192.910156 246.894531 L 250.714844 173.03125 C 255.339844 167.257812 256.992188 159.617188 255.339844 152.316406 L 234.695312 60.109375 C 233.042969 52.808594 228.417969 46.867188 221.8125 43.640625 L 138.570312 2.546875 C 135.433594 1.019531 131.964844 0.167969 128.496094 0.167969 Z M 128.496094 0.167969 "/>
<path style=" stroke:none;fill-rule:nonzero;fill:rgb(100%,100%,100%);fill-opacity:1;" d="M 212.230469 146.542969 C 212.066406 146.542969 212.066406 146.542969 212.230469 146.542969 L 212.066406 146.542969 C 211.902344 146.542969 211.738281 146.542969 211.738281 146.371094 C 211.40625 146.371094 211.074219 146.203125 210.746094 146.203125 C 209.589844 146.03125 208.597656 145.863281 207.609375 145.863281 C 207.113281 145.863281 206.617188 145.863281 205.957031 145.691406 L 205.789062 145.691406 C 202.324219 145.351562 199.515625 145.011719 196.871094 144.164062 C 195.714844 143.65625 195.386719 142.976562 195.054688 142.296875 C 195.054688 142.125 194.890625 142.125 194.890625 141.957031 L 192.742188 141.277344 C 193.734375 133.464844 193.402344 125.316406 191.585938 117.335938 C 189.769531 109.355469 186.632812 101.882812 182.339844 95.089844 L 183.988281 93.5625 L 183.988281 93.222656 C 183.988281 92.375 184.15625 91.523438 184.816406 90.675781 C 186.796875 88.808594 189.273438 87.28125 192.246094 85.410156 C 192.742188 85.070312 193.238281 84.902344 193.734375 84.5625 C 194.726562 84.054688 195.550781 83.542969 196.542969 82.863281 C 196.707031 82.695312 197.039062 82.523438 197.367188 82.183594 C 197.53125 82.015625 197.699219 82.015625 197.699219 81.847656 C 200.011719 79.808594 200.503906 76.410156 198.855469 74.203125 C 198.027344 73.015625 196.542969 72.335938 195.054688 72.335938 C 193.734375 72.335938 192.578125 72.847656 191.421875 73.695312 C 191.257812 73.863281 191.257812 73.863281 191.089844 74.035156 C 190.761719 74.203125 190.597656 74.542969 190.265625 74.714844 C 189.441406 75.5625 188.78125 76.242188 188.117188 77.089844 C 187.789062 77.429688 187.457031 77.941406 186.960938 78.28125 C 184.648438 80.828125 182.503906 82.863281 180.355469 84.394531 C 179.859375 84.730469 179.363281 84.902344 178.871094 84.902344 C 178.539062 84.902344 178.210938 84.902344 177.878906 84.730469 L 177.546875 84.730469 L 175.566406 86.089844 C 173.417969 83.714844 171.105469 81.675781 168.792969 79.636719 C 158.886719 71.65625 146.828125 66.734375 134.277344 65.542969 L 134.109375 63.335938 C 133.945312 63.167969 133.945312 63.167969 133.78125 62.996094 C 133.285156 62.488281 132.625 61.980469 132.460938 60.789062 C 132.292969 58.074219 132.625 55.015625 132.953125 51.621094 L 132.953125 51.449219 C 132.953125 50.941406 133.121094 50.261719 133.285156 49.753906 C 133.449219 48.734375 133.617188 47.714844 133.78125 46.527344 L 133.78125 45 C 133.78125 41.941406 131.46875 39.394531 128.660156 39.394531 C 127.339844 39.394531 126.019531 40.074219 125.027344 41.09375 C 124.035156 42.113281 123.539062 43.46875 123.539062 45 L 123.539062 46.355469 C 123.539062 47.546875 123.707031 48.5625 124.035156 49.582031 C 124.203125 50.09375 124.203125 50.601562 124.367188 51.28125 L 124.367188 51.449219 C 124.695312 54.847656 125.191406 57.902344 124.863281 60.621094 C 124.695312 61.808594 124.035156 62.316406 123.539062 62.828125 C 123.375 62.996094 123.375 62.996094 123.210938 63.167969 L 123.046875 65.375 C 120.070312 65.714844 117.097656 66.054688 114.125 66.734375 C 101.410156 69.621094 90.179688 76.242188 81.425781 85.75 L 79.773438 84.5625 L 79.441406 84.5625 C 79.113281 84.5625 78.78125 84.730469 78.453125 84.730469 C 77.957031 84.730469 77.460938 84.5625 76.964844 84.222656 C 74.816406 82.695312 72.671875 80.488281 70.359375 77.941406 C 70.027344 77.601562 69.699219 77.089844 69.203125 76.75 C 68.542969 75.902344 67.882812 75.222656 67.054688 74.375 C 66.890625 74.203125 66.558594 74.035156 66.230469 73.695312 C 66.066406 73.523438 65.898438 73.523438 65.898438 73.355469 C 64.910156 72.507812 63.585938 71.996094 62.265625 71.996094 C 60.78125 71.996094 59.292969 72.675781 58.46875 73.863281 C 56.816406 76.074219 57.3125 79.46875 59.625 81.507812 C 59.789062 81.507812 59.789062 81.675781 59.953125 81.675781 C 60.285156 81.847656 60.449219 82.183594 60.78125 82.355469 C 61.769531 83.035156 62.597656 83.542969 63.585938 84.054688 C 64.082031 84.222656 64.578125 84.5625 65.074219 84.902344 C 68.046875 86.769531 70.523438 88.296875 72.503906 90.167969 C 73.332031 91.015625 73.332031 91.863281 73.332031 92.714844 L 73.332031 93.054688 L 74.984375 94.582031 C 74.652344 95.089844 74.324219 95.429688 74.15625 95.941406 C 65.898438 109.355469 62.761719 125.144531 64.910156 140.769531 L 62.761719 141.445312 C 62.761719 141.617188 62.597656 141.617188 62.597656 141.785156 C 62.265625 142.464844 61.769531 143.144531 60.78125 143.65625 C 58.300781 144.503906 55.328125 144.84375 51.859375 145.183594 L 51.695312 145.183594 C 51.199219 145.183594 50.539062 145.183594 50.042969 145.351562 C 49.054688 145.351562 48.0625 145.523438 46.90625 145.691406 C 46.574219 145.691406 46.246094 145.863281 45.914062 145.863281 C 45.75 145.863281 45.585938 145.863281 45.417969 146.03125 C 42.445312 146.710938 40.628906 149.597656 41.125 152.316406 C 41.621094 154.691406 43.769531 156.21875 46.410156 156.21875 C 46.90625 156.21875 47.234375 156.21875 47.730469 156.050781 C 47.898438 156.050781 48.0625 156.050781 48.0625 155.878906 C 48.390625 155.878906 48.722656 155.710938 49.054688 155.710938 C 50.210938 155.371094 51.035156 155.03125 52.027344 154.523438 C 52.519531 154.351562 53.015625 154.011719 53.511719 153.84375 L 53.675781 153.84375 C 56.816406 152.652344 59.625 151.636719 62.265625 151.296875 L 62.597656 151.296875 C 63.585938 151.296875 64.246094 151.804688 64.742188 152.144531 C 64.910156 152.144531 64.910156 152.316406 65.074219 152.316406 L 67.386719 151.976562 C 71.351562 164.539062 78.945312 175.746094 89.023438 183.898438 C 91.335938 185.765625 93.644531 187.292969 96.125 188.824219 L 95.132812 191.03125 C 95.132812 191.199219 95.296875 191.199219 95.296875 191.371094 C 95.628906 192.046875 95.957031 192.898438 95.628906 194.085938 C 94.636719 196.632812 93.152344 199.179688 91.335938 202.066406 L 91.335938 202.238281 C 91.003906 202.746094 90.671875 203.085938 90.34375 203.59375 C 89.683594 204.445312 89.1875 205.292969 88.527344 206.3125 C 88.359375 206.480469 88.195312 206.820312 88.03125 207.160156 C 88.03125 207.332031 87.867188 207.5 87.867188 207.5 C 86.542969 210.386719 87.535156 213.613281 90.011719 214.800781 C 90.671875 215.140625 91.335938 215.3125 91.996094 215.3125 C 93.976562 215.3125 95.957031 213.953125 96.949219 212.085938 C 96.949219 211.914062 97.113281 211.746094 97.113281 211.746094 C 97.28125 211.40625 97.445312 211.066406 97.609375 210.898438 C 98.105469 209.707031 98.269531 208.859375 98.601562 207.839844 C 98.765625 207.332031 98.929688 206.820312 99.097656 206.3125 C 100.253906 202.917969 101.078125 200.199219 102.566406 197.820312 C 103.226562 196.804688 104.050781 196.632812 104.710938 196.292969 C 104.878906 196.292969 104.878906 196.292969 105.042969 196.125 L 106.199219 193.917969 C 113.464844 196.804688 121.394531 198.332031 129.320312 198.332031 C 134.109375 198.332031 139.066406 197.820312 143.691406 196.632812 C 146.664062 195.953125 149.472656 195.105469 152.277344 194.085938 L 153.269531 195.953125 C 153.433594 195.953125 153.433594 195.953125 153.601562 196.125 C 154.425781 196.292969 155.085938 196.632812 155.746094 197.652344 C 157.070312 200.03125 158.058594 202.917969 159.214844 206.140625 L 159.214844 206.3125 C 159.378906 206.820312 159.546875 207.332031 159.710938 207.839844 C 160.042969 208.859375 160.207031 209.878906 160.703125 210.898438 C 160.867188 211.238281 161.03125 211.40625 161.199219 211.746094 C 161.199219 211.914062 161.363281 212.085938 161.363281 212.085938 C 162.355469 214.125 164.335938 215.3125 166.316406 215.3125 C 166.976562 215.3125 167.640625 215.140625 168.300781 214.800781 C 169.457031 214.125 170.445312 213.105469 170.777344 211.746094 C 171.105469 210.386719 171.105469 208.859375 170.445312 207.5 C 170.445312 207.332031 170.28125 207.332031 170.28125 207.160156 C 170.117188 206.820312 169.949219 206.480469 169.785156 206.3125 C 169.289062 205.292969 168.628906 204.445312 167.96875 203.59375 C 167.640625 203.085938 167.308594 202.746094 166.976562 202.238281 L 166.976562 202.066406 C 165.160156 199.179688 163.507812 196.632812 162.683594 194.085938 C 162.355469 192.898438 162.683594 192.21875 162.847656 191.371094 C 162.847656 191.199219 163.015625 191.199219 163.015625 191.03125 L 162.1875 188.992188 C 170.941406 183.726562 178.375 176.257812 183.988281 167.085938 C 186.960938 162.332031 189.273438 157.070312 190.925781 151.804688 L 192.910156 152.144531 C 193.074219 152.144531 193.074219 151.976562 193.238281 151.976562 C 193.898438 151.636719 194.394531 151.125 195.386719 151.125 L 195.714844 151.125 C 198.359375 151.464844 201.167969 152.484375 204.304688 153.671875 L 204.46875 153.671875 C 204.964844 153.84375 205.460938 154.183594 205.957031 154.351562 C 206.945312 154.863281 207.773438 155.203125 208.929688 155.539062 C 209.257812 155.539062 209.589844 155.710938 209.921875 155.710938 C 210.085938 155.710938 210.25 155.710938 210.414062 155.878906 C 210.910156 156.050781 211.242188 156.050781 211.738281 156.050781 C 214.214844 156.050781 216.359375 154.351562 217.023438 152.144531 C 217.023438 150.105469 215.207031 147.390625 212.230469 146.542969 Z M 135.761719 138.222656 L 128.496094 141.785156 L 121.226562 138.222656 L 119.410156 130.238281 L 124.367188 123.789062 L 132.460938 123.789062 L 137.414062 130.238281 Z M 178.871094 120.5625 C 180.191406 126.335938 180.519531 132.109375 180.027344 137.710938 L 154.757812 130.238281 C 152.445312 129.5625 151.121094 127.183594 151.617188 124.804688 C 151.785156 124.128906 152.113281 123.449219 152.609375 122.9375 L 172.59375 104.429688 C 175.402344 109.183594 177.546875 114.617188 178.871094 120.5625 Z M 164.664062 94.242188 L 143.03125 110.035156 C 141.214844 111.222656 138.734375 110.882812 137.25 109.015625 C 136.753906 108.503906 136.589844 107.824219 136.421875 107.148438 L 134.9375 79.46875 C 146.332031 80.828125 156.738281 86.089844 164.664062 94.242188 Z M 116.769531 80.316406 C 118.585938 79.976562 120.238281 79.636719 122.054688 79.296875 L 120.566406 106.46875 C 120.402344 108.84375 118.585938 110.882812 116.109375 110.882812 C 115.449219 110.882812 114.621094 110.710938 114.125 110.371094 L 92.160156 94.242188 C 98.929688 87.28125 107.355469 82.523438 116.769531 80.316406 Z M 84.230469 104.429688 L 103.886719 122.429688 C 105.703125 123.957031 105.867188 126.84375 104.382812 128.710938 C 103.886719 129.390625 103.226562 129.898438 102.398438 130.070312 L 76.800781 137.710938 C 75.808594 126.164062 78.285156 114.449219 84.230469 104.429688 Z M 79.773438 150.445312 L 106.035156 145.863281 C 108.179688 145.691406 110.164062 147.21875 110.65625 149.429688 C 110.824219 150.445312 110.824219 151.296875 110.492188 152.144531 L 100.417969 177.105469 C 91.167969 170.992188 83.738281 161.652344 79.773438 150.445312 Z M 140.058594 184.238281 C 136.257812 185.085938 132.460938 185.597656 128.496094 185.597656 C 122.714844 185.597656 117.097656 184.578125 111.8125 182.878906 L 124.863281 158.597656 C 126.183594 157.070312 128.332031 156.390625 130.148438 157.410156 C 130.972656 157.917969 131.632812 158.597656 132.128906 159.277344 L 144.847656 182.878906 C 143.359375 183.390625 141.707031 183.726562 140.058594 184.238281 Z M 172.261719 160.636719 C 168.132812 167.425781 162.683594 172.859375 156.40625 177.105469 L 146.003906 151.464844 C 145.507812 149.429688 146.332031 147.21875 148.316406 146.203125 C 148.976562 145.863281 149.800781 145.691406 150.628906 145.691406 L 177.054688 150.277344 C 176.0625 154.011719 174.410156 157.410156 172.261719 160.636719 Z M 172.261719 160.636719 "/>
</g>
</svg>
