<?xml version="1.0" encoding="UTF-8"?>
<svg xmlns="http://www.w3.org/2000/svg" xmlns:xlink="http://www.w3.org/1999/xlink" width="256px" height="256px" viewBox="0 0 256 256" version="1.1">
<defs>
<linearGradient id="linear0" gradientUnits="userSpaceOnUse" x1="0.379726" y1="0.169989" x2="0.911208" y2="0.76326" gradientTransform="matrix(256,0,0,223.238281,0,0)">
<stop offset="0" style="stop-color:rgb(78.823529%,79.607843%,80.784314%);stop-opacity:1;"/>
<stop offset="1" style="stop-color:rgb(48.235294%,47.843137%,50.588235%);stop-opacity:1;"/>
</linearGradient>
</defs>
<g id="surface1">
<path style=" stroke:none;fill-rule:nonzero;fill:url(#linear0);" d="M 149.332031 198.078125 C 96 198.078125 50.675781 162.644531 50.675781 120.199219 C 50.675781 77.753906 90.667969 42.445312 144 42.445312 C 211.355469 42.445312 242.570312 76.816406 242.570312 119.261719 C 242.570312 161.707031 208.164062 198.078125 149.332031 198.078125 M 128 0 C 58.667969 0 0 49.519531 0 113.1875 C 0 173.320312 58.3125 223.238281 127.644531 223.238281 C 196.980469 223.238281 256 176.855469 256 113.1875 C 256 49.519531 197.332031 0 128 0 "/>
<path style=" stroke:none;fill-rule:nonzero;fill:rgb(12.941176%,39.607843%,71.372549%);fill-opacity:1;" d="M 105.945312 68.746094 L 105.945312 255.917969 L 148.589844 255.917969 L 148.589844 183.128906 C 159.25 183.128906 165.601562 180.042969 172.574219 196.992188 C 183.234375 221.257812 196.5625 255.917969 196.5625 255.917969 L 247.199219 255.917969 C 247.199219 255.917969 215.21875 186.597656 212.554688 183.128906 C 207.636719 176.195312 201.890625 176.195312 193.898438 172.730469 C 209.886719 169.265625 224.796875 160.464844 229.980469 141.609375 C 234.511719 124.277344 233.976562 102.234375 224.265625 87.449219 C 215.855469 75.753906 207.222656 68.746094 185.902344 68.746094 Z M 148.589844 107.726562 L 176.574219 107.726562 C 183.210938 107.726562 188.566406 116.394531 188.566406 125.058594 C 188.566406 133.722656 183.234375 142.390625 176.574219 142.390625 L 148.589844 142.390625 Z M 148.589844 107.726562 "/>
</g>
</svg>
