<?xml version="1.0" encoding="UTF-8"?>
<svg xmlns="http://www.w3.org/2000/svg" xmlns:xlink="http://www.w3.org/1999/xlink" width="256px" height="256px" viewBox="0 0 256 256" version="1.1">
<defs>
<radialGradient id="radial0" gradientUnits="userSpaceOnUse" cx="0.036847" cy="0.93523" fx="0.036847" fy="0.93523" r="1.050291" gradientTransform="matrix(226.375,0,0,232.738281,3.320312,19.300781)">
<stop offset="0" style="stop-color:rgb(12.941176%,12.941176%,12.941176%);stop-opacity:1;"/>
<stop offset="1" style="stop-color:rgb(72.156863%,72.156863%,72.156863%);stop-opacity:1;"/>
</radialGradient>
<filter id="alpha" filterUnits="objectBoundingBox" x="0%" y="0%" width="100%" height="100%">
  <feColorMatrix type="matrix" in="SourceGraphic" values="0 0 0 0 1 0 0 0 0 1 0 0 0 0 1 0 0 0 1 0"/>
</filter>
<mask id="mask0">
  <g filter="url(#alpha)">
<rect x="0" y="0" width="256" height="256" style="fill:rgb(0%,0%,0%);fill-opacity:0.811765;stroke:none;"/>
  </g>
</mask>
<linearGradient id="linear0" gradientUnits="userSpaceOnUse" x1="0.508779" y1="1.346619" x2="0.508779" y2="-0.0000000102273" gradientTransform="matrix(211.480469,0,0,161.09375,10.351562,27.859375)">
<stop offset="0" style="stop-color:rgb(29.411765%,29.411765%,29.411765%);stop-opacity:1;"/>
<stop offset="1" style="stop-color:rgb(100%,100%,100%);stop-opacity:1;"/>
</linearGradient>
<clipPath id="clip1">
  <rect x="0" y="0" width="256" height="256"/>
</clipPath>
<g id="surface5" clip-path="url(#clip1)">
<path style=" stroke:none;fill-rule:nonzero;fill:url(#linear0);" d="M 46.5625 27.859375 L 185.625 27.859375 C 205.621094 27.859375 221.832031 44.523438 221.832031 65.085938 L 221.832031 151.726562 C 221.832031 172.285156 205.621094 188.953125 185.625 188.953125 L 46.5625 188.953125 C 26.5625 188.953125 10.351562 172.285156 10.351562 151.726562 L 10.351562 65.085938 C 10.351562 44.523438 26.5625 27.859375 46.5625 27.859375 Z M 46.5625 27.859375 "/>
</g>
<linearGradient id="linear1" gradientUnits="userSpaceOnUse" x1="0.313947" y1="0.839623" x2="0.56462" y2="0.292792" gradientTransform="matrix(145.832031,0,0,135.59375,107.917969,3.355469)">
<stop offset="0" style="stop-color:rgb(14.901961%,46.27451%,11.764706%);stop-opacity:1;"/>
<stop offset="1" style="stop-color:rgb(17.254902%,69.411765%,20.392157%);stop-opacity:0.996078;"/>
</linearGradient>
<radialGradient id="radial1" gradientUnits="userSpaceOnUse" cx="0.306376" cy="0.485912" fx="0.306376" fy="0.485912" r="0.518416" gradientTransform="matrix(140.65625,0,0,116.691406,109.578125,3.285156)">
<stop offset="0" style="stop-color:rgb(100%,100%,100%);stop-opacity:1;"/>
<stop offset="1" style="stop-color:rgb(100%,100%,100%);stop-opacity:0;"/>
</radialGradient>
</defs>
<g id="surface1">
<path style=" stroke:none;fill-rule:nonzero;fill:url(#radial0);" d="M 45.5 19.300781 L 187.511719 19.300781 C 210.808594 19.300781 229.695312 38.71875 229.695312 62.667969 L 229.695312 208.671875 C 229.695312 232.625 210.808594 252.039062 187.511719 252.039062 L 45.5 252.039062 C 22.207031 252.039062 3.320312 232.625 3.320312 208.671875 L 3.320312 62.667969 C 3.320312 38.71875 22.207031 19.300781 45.5 19.300781 Z M 45.5 19.300781 "/>
<path style=" stroke:none;fill-rule:nonzero;fill:rgb(16.862745%,16.862745%,16.862745%);fill-opacity:1;" d="M 45.5 22.539062 C 23.945312 22.539062 6.46875 40.507812 6.46875 62.667969 L 6.46875 208.671875 C 6.46875 230.835938 23.945312 248.800781 45.5 248.800781 L 187.511719 248.800781 C 209.070312 248.800781 226.542969 230.835938 226.542969 208.671875 L 226.542969 62.667969 C 226.542969 40.507812 209.070312 22.539062 187.511719 22.539062 Z M 45.5 16.0625 L 187.511719 16.0625 C 212.550781 16.0625 232.84375 36.929688 232.84375 62.667969 L 232.84375 208.671875 C 232.84375 234.414062 212.550781 255.277344 187.511719 255.277344 L 45.5 255.277344 C 20.464844 255.277344 0.171875 234.414062 0.171875 208.671875 L 0.171875 62.667969 C 0.171875 36.929688 20.464844 16.0625 45.5 16.0625 Z M 45.5 16.0625 "/>
<use xlink:href="#surface5" mask="url(#mask0)"/>
<path style=" stroke:none;fill-rule:nonzero;fill:rgb(93.333333%,93.333333%,93.333333%);fill-opacity:1;" d="M 99.519531 144.121094 L 78.734375 151.269531 C 75.933594 142.785156 70 138.542969 60.933594 138.542969 C 51.253906 138.542969 46.414062 141.765625 46.414062 148.207031 C 46.414062 150.773438 47.320312 152.945312 49.125 154.726562 C 50.933594 156.507812 55.023438 158.050781 61.390625 159.363281 C 72.035156 161.5625 79.832031 163.789062 84.769531 166.039062 C 89.710938 168.292969 93.875 171.917969 97.265625 176.917969 C 100.652344 181.921875 102.34375 187.511719 102.34375 193.691406 C 102.34375 203.378906 98.714844 211.757812 91.457031 218.828125 C 84.199219 225.898438 73.4375 229.433594 59.175781 229.433594 C 48.476562 229.433594 39.371094 226.933594 31.859375 221.933594 C 24.34375 216.929688 19.390625 209.507812 16.996094 199.660156 L 39.613281 194.398438 C 42.160156 204.402344 49.242188 209.402344 60.855469 209.402344 C 66.457031 209.402344 70.636719 208.289062 73.386719 206.0625 C 76.136719 203.835938 77.511719 201.179688 77.511719 198.089844 C 77.511719 194.949219 76.265625 192.511719 73.769531 190.785156 C 71.273438 189.054688 66.457031 187.433594 59.328125 185.914062 C 46.03125 183.085938 36.558594 179.222656 30.902344 174.328125 C 25.25 169.429688 22.421875 162.269531 22.421875 152.839844 C 22.421875 143.308594 25.796875 135.269531 32.546875 128.726562 C 39.296875 122.179688 48.453125 118.90625 60.015625 118.90625 C 80.492188 118.90625 93.660156 127.3125 99.519531 144.121094 Z M 181.402344 192.042969 L 131.734375 192.042969 C 131.683594 193.457031 131.660156 194.6875 131.660156 195.734375 C 131.660156 201.390625 133.125 205.65625 136.054688 208.539062 C 138.980469 211.417969 142.484375 212.859375 146.558594 212.859375 C 154.148438 212.859375 158.707031 208.695312 160.238281 200.367188 L 180.867188 201.9375 C 175.109375 220.269531 163.421875 229.433594 145.796875 229.433594 C 138.101562 229.433594 131.570312 227.851562 126.195312 224.679688 C 120.824219 221.511719 116.390625 216.890625 112.902344 210.816406 C 109.410156 204.742188 107.667969 197.460938 107.667969 188.976562 C 107.667969 176.355469 111.167969 166.171875 118.171875 158.417969 C 125.175781 150.667969 134.179688 146.792969 145.183594 146.792969 C 155.117188 146.792969 163.636719 150.394531 170.742188 157.59375 C 177.847656 164.796875 181.402344 176.277344 181.402344 192.042969 Z M 131.660156 178.449219 L 159.089844 178.449219 C 158.378906 167.558594 154.023438 162.109375 146.023438 162.109375 C 137.464844 162.109375 132.679688 167.558594 131.660156 178.449219 Z M 131.660156 178.449219 "/>
<path style=" stroke:none;fill-rule:nonzero;fill:rgb(13.72549%,13.72549%,13.72549%);fill-opacity:1;" d="M 60.015625 120.765625 C 48.890625 120.765625 40.179688 123.878906 33.789062 130.078125 C 27.402344 136.273438 24.234375 143.824219 24.234375 152.839844 C 24.234375 161.75 26.851562 168.382812 32.070312 172.902344 C 37.449219 177.5625 46.667969 181.320312 59.695312 184.089844 C 67.042969 185.65625 72.035156 187.339844 74.78125 189.242188 C 77.777344 191.316406 79.324219 194.332031 79.324219 198.089844 C 79.324219 201.777344 77.675781 204.960938 74.507812 207.527344 C 71.386719 210.046875 66.828125 211.261719 60.855469 211.261719 C 49.132812 211.261719 41.496094 206.320312 38.359375 196.597656 L 19.238281 201.046875 C 21.671875 209.53125 26.195312 215.945312 32.84375 220.371094 C 40.046875 225.164062 48.8125 227.574219 59.175781 227.574219 C 73.007812 227.574219 83.328125 224.183594 90.210938 217.476562 C 97.117188 210.753906 100.535156 202.859375 100.535156 193.691406 C 100.535156 187.890625 98.953125 182.671875 95.777344 177.984375 C 92.574219 173.253906 88.667969 169.851562 84.039062 167.742188 C 79.242188 165.554688 71.5625 163.363281 61.035156 161.1875 C 54.347656 159.8125 50.007812 158.171875 47.875 156.070312 C 45.710938 153.941406 44.605469 151.28125 44.605469 148.207031 C 44.605469 140.523438 50.375 136.683594 60.933594 136.683594 C 70.128906 136.683594 76.523438 140.832031 79.8125 148.9375 L 97.152344 142.972656 C 91.277344 128.132812 79.023438 120.765625 60.015625 120.765625 Z M 77.601562 153.625 L 77.019531 151.867188 C 74.472656 144.148438 69.234375 140.40625 60.933594 140.40625 C 52.132812 140.40625 48.226562 143.003906 48.226562 148.207031 C 48.226562 150.265625 48.925781 151.953125 50.378906 153.382812 C 51.863281 154.84375 55.699219 156.292969 61.746094 157.535156 C 72.511719 159.761719 80.417969 162.019531 85.503906 164.335938 C 90.757812 166.730469 95.175781 170.582031 98.75 175.855469 C 102.347656 181.171875 104.15625 187.132812 104.15625 193.691406 C 104.15625 203.898438 100.316406 212.765625 92.703125 220.179688 C 85.070312 227.613281 73.863281 231.296875 59.175781 231.296875 C 48.144531 231.296875 38.695312 228.699219 30.875 223.496094 C 22.964844 218.230469 17.742188 210.402344 15.242188 200.113281 L 14.792969 198.265625 L 40.921875 192.183594 L 41.367188 193.925781 C 43.691406 203.066406 50.027344 207.539062 60.855469 207.539062 C 66.089844 207.539062 69.882812 206.53125 72.265625 204.601562 C 74.597656 202.714844 75.703125 200.582031 75.703125 198.089844 C 75.703125 195.5625 74.75 193.707031 72.757812 192.328125 C 70.511719 190.773438 65.875 189.210938 58.960938 187.738281 C 45.398438 184.851562 35.664062 180.882812 29.738281 175.75 C 23.648438 170.476562 20.613281 162.789062 20.613281 152.839844 C 20.613281 142.796875 24.191406 134.269531 31.304688 127.371094 C 38.410156 120.476562 48.015625 117.042969 60.015625 117.042969 C 81.21875 117.042969 95.089844 125.898438 101.222656 143.492188 L 101.847656 145.285156 Z M 169.472656 158.917969 C 162.703125 152.0625 154.640625 148.652344 145.183594 148.652344 C 134.675781 148.652344 126.15625 152.320312 119.5 159.6875 C 112.824219 167.074219 109.476562 176.804688 109.476562 188.976562 C 109.476562 197.144531 111.144531 204.097656 114.460938 209.871094 C 117.792969 215.675781 122.003906 220.0625 127.097656 223.066406 C 132.179688 226.0625 138.402344 227.574219 145.796875 227.574219 C 161.882812 227.574219 172.652344 219.679688 178.390625 203.617188 L 161.667969 202.34375 C 159.675781 210.464844 154.527344 214.71875 146.558594 214.71875 C 142.019531 214.71875 138.066406 213.09375 134.800781 209.882812 C 131.480469 206.617188 129.847656 201.863281 129.847656 195.734375 C 129.847656 194.660156 129.875 193.40625 129.925781 191.972656 L 129.992188 190.179688 L 179.574219 190.179688 C 179.304688 175.835938 175.910156 165.441406 169.472656 158.917969 Z M 133.46875 195.734375 C 133.46875 200.917969 134.765625 204.699219 137.304688 207.191406 C 139.894531 209.742188 142.949219 210.996094 146.558594 210.996094 C 153.25 210.996094 157.085938 207.496094 158.457031 200.023438 L 158.757812 198.390625 L 183.296875 200.257812 L 182.589844 202.511719 C 176.597656 221.59375 164.222656 231.296875 145.796875 231.296875 C 137.804688 231.296875 130.960938 229.636719 125.296875 226.296875 C 119.640625 222.960938 114.988281 218.109375 111.34375 211.761719 C 107.679688 205.386719 105.855469 197.78125 105.855469 188.976562 C 105.855469 175.90625 109.515625 165.265625 116.847656 157.152344 C 124.199219 149.015625 133.6875 144.929688 145.183594 144.929688 C 155.59375 144.929688 164.570312 148.726562 172.011719 156.269531 C 179.511719 163.867188 183.210938 175.824219 183.210938 192.042969 L 183.210938 193.902344 L 133.492188 193.902344 C 133.476562 194.566406 133.46875 195.179688 133.46875 195.734375 Z M 129.667969 180.3125 L 129.859375 178.273438 C 130.960938 166.492188 136.449219 160.25 146.023438 160.25 C 155.09375 160.25 160.125 166.542969 160.898438 178.324219 L 161.027344 180.3125 Z M 157.105469 176.589844 C 156.109375 167.960938 152.476562 163.972656 146.023438 163.972656 C 139.015625 163.972656 134.992188 167.988281 133.707031 176.589844 Z M 157.105469 176.589844 "/>
<path style=" stroke:none;fill-rule:nonzero;fill:url(#linear1);" d="M 107.917969 92.242188 L 150.503906 138.949219 L 253.75 29.042969 L 239.554688 3.355469 L 153.34375 96.328125 L 123.816406 67.722656 Z M 107.917969 92.242188 "/>
<path style=" stroke:none;fill-rule:nonzero;fill:url(#radial1);" d="M 109.578125 88.617188 L 151.601562 119.976562 L 250.234375 21.871094 L 240.351562 3.285156 L 153.574219 98.007812 L 124.613281 70.566406 Z M 109.578125 88.617188 "/>
<path style=" stroke:none;fill-rule:nonzero;fill:rgb(0%,0%,0%);fill-opacity:1;" d="M 239.925781 0.257812 L 255.992188 29.335938 L 150.484375 141.648438 L 105.613281 92.4375 L 123.5 64.855469 L 153.277344 93.703125 Z M 150.523438 136.246094 L 251.507812 28.753906 L 239.183594 6.453125 L 153.414062 98.953125 L 124.132812 70.585938 L 110.21875 92.046875 Z M 150.523438 136.246094 "/>
</g>
</svg>
