<?xml version="1.0" encoding="UTF-8"?>
<svg xmlns="http://www.w3.org/2000/svg" xmlns:xlink="http://www.w3.org/1999/xlink" width="256px" height="256px" viewBox="0 0 256 256" version="1.1">
<g id="surface1">
<path style=" stroke:none;fill-rule:nonzero;fill:rgb(100%,40%,0%);fill-opacity:1;" d="M 142.078125 196.457031 C 142.078125 229.160156 116.292969 255.671875 84.488281 255.671875 C 52.679688 255.671875 26.894531 229.160156 26.894531 196.457031 C 26.894531 163.757812 52.679688 137.246094 84.488281 137.246094 C 116.292969 137.246094 142.078125 163.757812 142.078125 196.457031 "/>
<path style=" stroke:none;fill-rule:nonzero;fill:rgb(100%,80%,0%);fill-opacity:1;" d="M 255.980469 113.5625 C 255.980469 146.261719 230.199219 172.773438 198.390625 172.773438 C 166.582031 172.773438 140.800781 146.261719 140.800781 113.5625 C 140.800781 80.863281 166.582031 54.347656 198.390625 54.347656 C 230.199219 54.347656 255.980469 80.863281 255.980469 113.5625 "/>
<path style=" stroke:none;fill-rule:nonzero;fill:rgb(0%,53.72549%,80%);fill-opacity:1;" d="M 115.199219 112.25 C 115.199219 144.945312 89.417969 171.460938 57.609375 171.460938 C 25.804688 171.460938 0.0195312 144.945312 0.0195312 112.25 C 0.0195312 79.550781 25.804688 53.035156 57.609375 53.035156 C 89.417969 53.035156 115.199219 79.550781 115.199219 112.25 "/>
<path style=" stroke:none;fill-rule:nonzero;fill:rgb(0%,60%,22.352941%);fill-opacity:1;" d="M 230.386719 196.457031 C 230.386719 229.160156 204.605469 255.671875 172.789062 255.671875 C 140.988281 255.671875 115.203125 229.160156 115.203125 196.457031 C 115.203125 163.757812 140.988281 137.246094 172.789062 137.246094 C 204.605469 137.246094 230.386719 163.757812 230.386719 196.457031 "/>
<path style=" stroke:none;fill-rule:nonzero;fill:rgb(74.901961%,0%,0%);fill-opacity:1;" d="M 185.59375 59.613281 C 185.59375 92.316406 159.804688 118.824219 128 118.824219 C 96.195312 118.824219 70.40625 92.316406 70.40625 59.613281 C 70.40625 26.914062 96.195312 0.402344 128 0.402344 C 159.804688 0.402344 185.59375 26.914062 185.59375 59.613281 "/>
<path style=" stroke:none;fill-rule:nonzero;fill:rgb(98.823529%,0%,2.745098%);fill-opacity:1;" d="M 140.796875 113.5625 C 140.796875 114.808594 140.902344 116.027344 140.980469 117.257812 C 166.527344 111.199219 185.589844 87.71875 185.589844 59.613281 C 185.589844 58.367188 185.484375 57.144531 185.410156 55.914062 C 159.863281 61.980469 140.796875 85.460938 140.796875 113.5625 "/>
<path style=" stroke:none;fill-rule:nonzero;fill:rgb(10.980392%,82.745098%,2.352941%);fill-opacity:1;" d="M 148.398438 142.882812 C 158.320312 160.722656 176.972656 172.773438 198.394531 172.773438 C 207.125 172.773438 215.371094 170.71875 222.789062 167.140625 C 212.867188 149.300781 194.214844 137.25 172.789062 137.25 C 164.058594 137.25 155.8125 139.304688 148.398438 142.882812 "/>
<path style=" stroke:none;fill-rule:nonzero;fill:rgb(5.882353%,45.882353%,1.568627%);fill-opacity:1;" d="M 115.199219 196.457031 C 115.199219 210.925781 120.257812 224.164062 128.640625 234.445312 C 137.019531 224.164062 142.074219 210.925781 142.074219 196.457031 C 142.074219 181.992188 137.019531 168.753906 128.640625 158.472656 C 120.257812 168.753906 115.199219 181.992188 115.199219 196.457031 "/>
<path style=" stroke:none;fill-rule:nonzero;fill:rgb(4.705882%,36.862745%,52.941176%);fill-opacity:1;" d="M 34.808594 166.613281 C 41.800781 169.71875 49.503906 171.460938 57.609375 171.460938 C 78.816406 171.460938 97.296875 159.640625 107.292969 142.09375 C 100.296875 138.984375 92.59375 137.25 84.492188 137.25 C 63.28125 137.25 44.800781 149.070312 34.808594 166.613281 "/>
<path style=" stroke:none;fill-rule:nonzero;fill:rgb(41.960784%,0%,0.392157%);fill-opacity:1;" d="M 70.65625 54.617188 C 70.519531 56.269531 70.40625 57.925781 70.40625 59.613281 C 70.40625 87.695312 89.441406 111.15625 114.957031 117.242188 C 115.085938 115.59375 115.203125 113.933594 115.203125 112.25 C 115.203125 84.167969 96.171875 60.699219 70.65625 54.617188 "/>
<path style=" stroke:none;fill-rule:nonzero;fill:rgb(100%,100%,100%);fill-opacity:1;" d="M 76.03125 189.132812 L 67.019531 189.132812 C 59.066406 189.132812 52.601562 182.503906 52.601562 174.347656 L 52.601562 90.511719 C 52.601562 82.355469 59.066406 75.722656 67.019531 75.722656 L 179.988281 75.722656 C 187.941406 75.722656 194.40625 82.355469 194.40625 90.511719 L 194.40625 174.347656 C 194.40625 182.503906 187.941406 189.132812 179.988281 189.132812 L 141.503906 189.132812 L 64.289062 228.046875 Z M 76.03125 189.132812 "/>
</g>
</svg>
